<?xml version="1.0" standalone="no"?><!DOCTYPE svg PUBLIC "-//W3C//DTD SVG 1.1//EN" "http://www.w3.org/Graphics/SVG/1.1/DTD/svg11.dtd"><svg class="icon" width="200px" height="200.00px" viewBox="0 0 1024 1024" version="1.1" xmlns="http://www.w3.org/2000/svg"><path d="M87.438222 947.768889A30.264889 30.264889 0 0 1 56.888889 917.219556V144.327111c0-17.066667 13.425778-30.549333 30.549333-30.549333H191.146667c17.066667 0 30.549333 13.425778 30.549333 30.549333 0 17.066667-13.425778 30.549333-30.549333 30.549333H117.987556v711.793778h777.557333V174.876444h-67.128889a30.264889 30.264889 0 0 1-30.492444-30.549333c0-17.066667 13.425778-30.549333 30.549333-30.549333h97.621333c17.066667 0 30.492444 13.425778 30.492445 30.549333v772.892445c0 17.066667-13.425778 30.549333-30.492445 30.549333H87.438222zM316.871111 56.888889c17.976889 0 32.540444 14.563556 32.540445 32.483555v130.048a32.483556 32.483556 0 1 1-65.024 0V89.372444C284.444444 71.452444 299.008 56.888889 316.928 56.888889z m130.048 0c17.976889 0 32.540444 14.563556 32.540445 32.483555v130.048a32.483556 32.483556 0 0 1-65.024 0V89.372444c0-17.92 14.563556-32.483556 32.483555-32.483555z m130.048 0c17.92 0 32.483556 14.563556 32.483556 32.483555v130.048a32.483556 32.483556 0 0 1-65.024 0V89.372444c0-17.92 14.563556-32.483556 32.540444-32.483555z m130.048 0c17.92 0 32.483556 14.563556 32.483556 32.483555v130.048a32.483556 32.483556 0 0 1-65.024 0V89.372444c0-17.92 14.563556-32.483556 32.540444-32.483555zM199.111111 284.444444h625.777778a28.444444 28.444444 0 1 1 0 56.888889h-625.777778a28.444444 28.444444 0 0 1 0-56.888889z m-17.066667 441.742223a32.654222 32.654222 0 0 1-2.730666-46.933334L373.589333 457.386667a33.735111 33.735111 0 0 1 22.528-11.207111 34.759111 34.759111 0 0 1 23.893334 7.964444l180.280889 159.232 178.972444-204.856889a33.223111 33.223111 0 0 1 48.355556 45.568l-200.817778 228.010667a33.28 33.28 0 0 1-46.421334 1.934222L401.408 525.539556l-172.373333 196.664888a32.711111 32.711111 0 0 1-25.144889 11.889778 32.995556 32.995556 0 0 1-21.902222-7.964444z"  /></svg>