<?xml version="1.0" standalone="no"?><!DOCTYPE svg PUBLIC "-//W3C//DTD SVG 1.1//EN" "http://www.w3.org/Graphics/SVG/1.1/DTD/svg11.dtd"><svg class="icon" width="64px" height="60.01px" viewBox="0 0 1092 1024" version="1.1" xmlns="http://www.w3.org/2000/svg"><path d="M552.823467 3.754667l518.280533 291.498666a13.653333 13.653333 0 0 1 0 23.893334l-518.280533 291.498666a13.653333 13.653333 0 0 1-13.380267 0L21.162667 319.146667a13.653333 13.653333 0 0 1 0-23.893334L539.4432 3.822933a13.653333 13.653333 0 0 1 13.380267 0zM969.386667 441.1392l100.1472 56.388267a13.653333 13.653333 0 0 1 0 23.825066l-518.280534 291.498667a13.653333 13.653333 0 0 1-13.380266 0L19.592533 521.352533a13.653333 13.653333 0 0 1 0-23.893333l100.215467-56.32L537.941333 676.317867a13.653333 13.653333 0 0 0 13.380267 0L969.386667 441.1392zM962.286933 647.099733l100.215467 56.388267a13.653333 13.653333 0 0 1 0 23.7568l-518.280533 291.498667a13.653333 13.653333 0 0 1-13.380267 0l-518.280533-291.498667a13.653333 13.653333 0 0 1 0-23.7568l100.215466-56.388267 418.065067 235.178667a13.653333 13.653333 0 0 0 13.380267 0l418.065066-235.178667z" /></svg>