<?xml version="1.0" standalone="no"?><!DOCTYPE svg PUBLIC "-//W3C//DTD SVG 1.1//EN" "http://www.w3.org/Graphics/SVG/1.1/DTD/svg11.dtd"><svg class="icon" width="200px" height="200.00px" viewBox="0 0 1024 1024" version="1.1" xmlns="http://www.w3.org/2000/svg"><path d="M512 409.6c-12.8 0-32 12.8-38.4 19.2 0 0-166.4 147.2-198.4 179.2v134.4c0 6.4 0 12.8 6.4 12.8 0 12.8 6.4 12.8 12.8 12.8h121.6s6.4 0 6.4-6.4l6.4-6.4v-96s0-6.4 6.4-6.4l6.4-6.4h140.8s6.4 0 6.4 6.4l6.4 6.4v96s0 6.4 6.4 6.4l6.4 6.4h128c6.4 0 12.8 0 12.8-6.4 6.4-6.4 6.4-12.8 6.4-12.8V614.4c-38.4-32-198.4-179.2-198.4-185.6-19.2-12.8-25.6-19.2-44.8-19.2z m320 140.8c0-12.8-6.4-19.2-12.8-25.6l-12.8-12.8c-6.4-6.4-19.2-19.2-32-25.6l-38.4-38.4c-12.8-12.8-32-25.6-44.8-44.8-12.8-12.8-32-25.6-44.8-44.8L608 320 576 288l-12.8-12.8C550.4 262.4 531.2 256 512 256c-19.2 0-38.4 6.4-51.2 25.6 0 0-12.8 6.4-25.6 19.2l-44.8 44.8c-19.2 12.8-38.4 32-57.6 51.2l-57.6 57.6c-19.2 12.8-32 25.6-51.2 38.4-12.8 12.8-19.2 25.6-19.2 25.6-6.4 6.4-12.8 12.8-12.8 25.6s6.4 19.2 12.8 25.6c6.4 6.4 19.2 12.8 25.6 12.8 12.8 0 19.2 0 25.6-6.4l19.2-19.2c12.8-6.4 25.6-19.2 38.4-32l44.8-44.8c19.2-19.2 32-32 51.2-44.8l38.4-38.4 25.6-25.6c12.8-6.4 25.6-12.8 38.4-12.8 12.8 0 25.6 6.4 38.4 19.2 0 0 12.8 6.4 19.2 19.2l38.4 38.4c12.8 12.8 32 32 51.2 44.8 19.2 12.8 32 32 51.2 44.8l38.4 38.4c12.8 6.4 19.2 12.8 19.2 12.8 6.4 6.4 12.8 6.4 25.6 6.4s19.2 0 25.6-12.8c12.8 0 12.8-12.8 12.8-19.2z" /></svg>