<svg xmlns="http://www.w3.org/2000/svg" width="16.094" height="16.093" viewBox="0 0 16.094 16.093">
  <defs>
    <style>
      .cls-1 {
        fill: #1890ff;
      }
    </style>
  </defs>
  <g id="组_178" data-name="组 178" transform="translate(0.114 0)">
    <path id="路径_198" data-name="路径 198" class="cls-1" d="M302.594,53.364a.844.844,0,0,0,1.2,0l9.25-9.25a.848.848,0,0,0,0-1.2l0,0a.844.844,0,0,0-1.194,0l-9.248,9.25A.848.848,0,0,0,302.594,53.364Z" transform="translate(-297.707 -41.997)"/>
    <path id="路径_199" data-name="路径 199" class="cls-1" d="M15.133,6.776h0a.844.844,0,0,0-.842.84V14.4H1.583V1.691l6.779,0A.849.849,0,0,0,9.207.847v0A.844.844,0,0,0,8.362,0H.73A.839.839,0,0,0-.112.842l0,14.41a.839.839,0,0,0,.844.84H15.14a.84.84,0,0,0,.84-.844V7.62a.846.846,0,0,0-.848-.844Z" transform="translate(0)"/>
  </g>
</svg>
