<?xml version="1.0" standalone="no"?><!DOCTYPE svg PUBLIC "-//W3C//DTD SVG 1.1//EN" "http://www.w3.org/Graphics/SVG/1.1/DTD/svg11.dtd"><svg class="icon" width="200px" height="200.00px" viewBox="0 0 1024 1024" version="1.1" xmlns="http://www.w3.org/2000/svg"><path  d="M825.724 153.458H638.386C619.563 101.47 570.263 63.823 512 63.823s-107.563 37.647-126.386 89.635H198.276c-49.3 0-89.635 40.336-89.635 89.635v627.448c0 49.3 40.336 89.635 89.635 89.635h627.448c49.299 0 89.635-40.336 89.635-89.635V243.094c0.001-49.3-40.335-89.636-89.635-89.636z m-313.724 0c24.65 0 44.818 20.168 44.818 44.818S536.65 243.094 512 243.094s-44.818-20.168-44.818-44.818S487.35 153.458 512 153.458z m89.635 627.448H287.911v-89.635h313.724v89.635z m134.454-179.271H287.911V512h448.177v89.635z m0-179.27H287.911V332.73h448.177v89.635z" /></svg>