<?xml version="1.0" standalone="no"?><!DOCTYPE svg PUBLIC "-//W3C//DTD SVG 1.1//EN" "http://www.w3.org/Graphics/SVG/1.1/DTD/svg11.dtd"><svg class="icon" width="200px" height="200.00px" viewBox="0 0 1024 1024" version="1.1" xmlns="http://www.w3.org/2000/svg"><path  d="M525.7142853125 992c-82.2857146875 0-130.2857146875-34.285714687500004-150.85714218750002-54.857143125H66.28571468750005c-20.5714284375 0-34.285714687500004-13.714285312500001-34.285714687500004-34.28571375V66.28571468750005C32 52.5714284375 45.71428531250001 32 66.28571468750005 32h267.42857062499996c54.857143125 0 102.85714312500001 20.5714284375 137.1428578125 61.714285312499996l48 54.857143125 68.5714284375-61.714285312499996C614.857143125 52.5714284375 669.7142853125 32 717.7142853125 32h240c20.5714284375 0 34.285714687500004 20.5714284375 34.285714687500004 34.285714687500004v829.7142853125c0 20.5714284375-13.714285312500001 34.285714687500004-34.285714687500004 34.285714687500004H662.857143125c-20.5714284375 20.5714284375-75.4285715625 61.714285312499996-137.1428578125 61.714285312499996zM100.5714284375 868.5714284375h294.85714312500005c13.714285312500001 0 20.5714284375 6.857143125 27.4285715625 13.71428625 0 0 34.285714687500004 41.142856875 102.8571421875 41.142856875 54.857143125 0 96-41.142856875 102.85714312500001-41.142856875 6.857143125-6.857143125 13.714285312500001-13.714285312500001 27.4285715625-13.71428625h274.28571468750005V100.5714284375h-205.71428625000001c-41.142856875 0-68.5714284375 13.714285312500001-96 41.142856875L532.5714284375 224c-6.857143125 6.857143125-13.714285312500001 13.714285312500001-20.5714284375 6.857143125-6.857143125 0-20.5714284375-6.857143125-20.5714284375-13.71428625l-68.5714284375-82.28571375c-27.4285715625-20.5714284375-61.714285312499996-34.285714687500004-89.1428578125-34.285714687500004H100.5714284375v768z"  /><path  d="M717.7142853125 32h68.57142937500001v274.28571468750005h-68.57142937500001z"  /><path  d="M752 436.5714284375c-20.5714284375 0-34.285714687500004-13.714285312500001-34.285714687500004-34.28571375v-274.28571468750005c0-20.5714284375 13.714285312500001-34.285714687500004 34.285714687500004-34.285714687500004s34.285714687500004 13.714285312500001 34.285714687500004 34.285714687500004v274.28571468750005c0 20.5714284375-13.714285312500001 34.285714687500004-34.285714687500004 34.28571375zM512 642.2857146874999c-20.5714284375 0-34.285714687500004-13.714285312500001-34.285714687500004-34.285714687500004V203.4285715625c0-20.5714284375 13.714285312500001-34.285714687500004 34.285714687500004-34.285714687500004s34.285714687500004 13.714285312500001 34.285714687500004 34.285714687500004v404.5714284375c0 20.5714284375-13.714285312500001 34.285714687500004-34.285714687500004 34.285714687500004z"  /></svg>