<?xml version="1.0" standalone="no"?><!DOCTYPE svg PUBLIC "-//W3C//DTD SVG 1.1//EN" "http://www.w3.org/Graphics/SVG/1.1/DTD/svg11.dtd"><svg class="icon" width="200px" height="200.00px" viewBox="0 0 1024 1024" version="1.1" xmlns="http://www.w3.org/2000/svg"><path  d="M931.782 342.413H736.254L583.223 189.388c23.872-39.852 10.917-91.507-28.932-115.377s-91.512-10.916-115.38 28.937c-16.07 26.832-15.927 60.365 0.374 87.056L286.763 342.413H90.225c-15.419 0.124-27.846 12.674-27.813 28.093v560.629c0 15.193 12.45 28.09 27.813 28.09h841.503c15.413-0.122 27.842-12.678 27.811-28.09V370.506c0.032-15.396-12.363-27.94-27.757-28.093zM483.02 225.5a84.017 84.017 0 0 0 56.692-0.28l117.197 117.193H366.05L483.02 225.5zM174.56 510.635h280.369v56.073H174.559v-56.073z m448.593 280.367H174.559v-56.069h448.592v56.07z m168.22-112.147H174.56v-56.073h616.812v56.073z" /></svg>