<?xml version="1.0" standalone="no"?><!DOCTYPE svg PUBLIC "-//W3C//DTD SVG 1.1//EN" "http://www.w3.org/Graphics/SVG/1.1/DTD/svg11.dtd"><svg class="icon" width="200px" height="200.00px" viewBox="0 0 1024 1024" version="1.1" xmlns="http://www.w3.org/2000/svg"><path  d="M741.45 64H153.542C104.317 64 64 105.382 64 155.327v713.47c0 49.945 40.317 90.852 89.541 90.852h265.196c15.47 0 28.263-15.749 28.263-31.445C447 912.507 434.208 896 418.737 896H160.541c-18.283 0-33.285-14.652-33.285-33.202V161.85c0-18.55 15.002-33.772 33.285-33.772H741.92c18.283 0 26.285 15.221 26.285 33.772v193.384c0 15.697 16.657 28.54 32.128 28.54 15.47 0 31.128-12.843 31.128-28.54V155.327c0-49.945-40.317-91.327-90.01-91.327z m117.883 752.448l28.49 28.52c11.839 11.85 11.834 31.054-0.011 42.899-11.837 11.837-31.029 11.837-42.866 0a39.535 39.535 0 0 1-0.01-0.012l-28.493-28.522a190.873 190.873 0 0 1-82.114 33.87v36.468C734.329 946.421 720.75 960 704 960s-30.329-13.579-30.329-30.329v-36.466a190.264 190.264 0 0 1-82.117-33.871l-28.48 28.48c-11.843 11.842-31.044 11.842-42.887 0-11.843-11.844-11.843-31.045 0-42.889l28.48-28.479a190.264 190.264 0 0 1-33.872-82.117H478.33C461.579 734.329 448 720.75 448 704s13.579-30.329 30.329-30.329h36.466a190.264 190.264 0 0 1 33.871-82.117l-28.48-28.48c-11.842-11.843-11.842-31.044 0-42.887 11.844-11.843 31.045-11.843 42.889 0l28.479 28.48a190.264 190.264 0 0 1 82.117-33.872V478.33C673.671 461.579 687.25 448 704 448s30.329 13.579 30.329 30.329v36.466a190.264 190.264 0 0 1 82.115 33.87l28.491-28.52c11.83-11.844 31.022-11.854 42.866-0.023l0.01 0.011c11.846 11.845 11.85 31.048 0.012 42.9l-28.49 28.518c17.523 24.165 29.1 52.09 33.866 82.12h36.472C946.421 673.671 960 687.25 960 704s-13.579 30.329-30.329 30.329h-36.466a190.264 190.264 0 0 1-33.872 82.119zM703.5 572C630.969 572 572 630.969 572 703.5S630.969 835 703.5 835 835 776.031 835 703.5 776.031 572 703.5 572zM222.065 320C204.98 320 191 305.825 191 288.5s13.98-31.5 31.065-31.5h449.87C689.02 257 703 271.175 703 288.5S689.02 320 671.935 320h-449.87z m0.437 192c-17.352 0-31.55-14.4-31.55-32s14.198-32 31.55-32h192.9c17.353 0 31.55 14.4 31.55 32s-14.197 32-31.55 32h-192.9z m129.013 192h-129.03C205.168 704 191 689.6 191 672s14.168-32 31.485-32h129.03C368.832 640 383 654.4 383 672s-14.168 32-31.485 32z"  opacity=".85" /></svg>