<?xml version="1.0" standalone="no"?><!DOCTYPE svg PUBLIC "-//W3C//DTD SVG 1.1//EN" "http://www.w3.org/Graphics/SVG/1.1/DTD/svg11.dtd"><svg class="icon" width="64px" height="63.69px" viewBox="0 0 1029 1024" version="1.1" xmlns="http://www.w3.org/2000/svg"><path d="M554.07872 30.592l463.104 360.128a32 32 0 0 1-19.648 57.28H32.03072a32 32 0 0 1-19.648-57.28L475.48672 30.592a64 64 0 0 1 78.592 0zM34.78272 960h960a32 32 0 1 1 0 64H34.78272a32 32 0 1 1 0-64zM194.78272 512h64a64 64 0 0 1 64 64v256a64 64 0 0 1-64 64H194.78272a64 64 0 0 1-64-64V576a64 64 0 0 1 64-64z m288 0h64a64 64 0 0 1 64 64v256a64 64 0 0 1-64 64h-64a64 64 0 0 1-64-64V576a64 64 0 0 1 64-64zM770.78272 512h64a64 64 0 0 1 64 64v256a64 64 0 0 1-64 64h-64a64 64 0 0 1-64-64V576a64 64 0 0 1 64-64z" /></svg>