<?xml version="1.0" standalone="no"?><!DOCTYPE svg PUBLIC "-//W3C//DTD SVG 1.1//EN" "http://www.w3.org/Graphics/SVG/1.1/DTD/svg11.dtd"><svg class="icon" width="64px" height="54.89px" viewBox="0 0 1194 1024" version="1.1" xmlns="http://www.w3.org/2000/svg"><path d="M1169.92 853.333333L701.44 71.68a111.786667 111.786667 0 0 0-208.213333 0L24.746667 853.333333c-57.173333 95.573333-10.24 170.666667 104.106666 170.666667h938.666667c113.493333 0 159.573333-77.653333 102.4-170.666667zM533.333333 292.693333a92.16 92.16 0 0 1 128.853334 0 85.333333 85.333333 0 0 1 20.48 64c0 22.186667-34.986667 186.88-46.933334 306.346667h-85.333333C546.133333 543.573333 512 379.733333 512 356.693333a85.333333 85.333333 0 0 1 21.333333-64z m128 568.32a93.013333 93.013333 0 0 1-126.293333 0 79.36 79.36 0 0 1-26.453333-59.733333 85.333333 85.333333 0 0 1 26.453333-60.586667 91.306667 91.306667 0 0 1 126.293333 0 85.333333 85.333333 0 0 1 26.453334 60.586667 79.36 79.36 0 0 1-27.306667 59.733333z" /></svg>