<?xml version="1.0" standalone="no"?><!DOCTYPE svg PUBLIC "-//W3C//DTD SVG 1.1//EN" "http://www.w3.org/Graphics/SVG/1.1/DTD/svg11.dtd"><svg class="icon" width="200px" height="200.00px" viewBox="0 0 1024 1024" version="1.1" xmlns="http://www.w3.org/2000/svg"><path  d="M870.4 966.4h-76.8V780.8s0-6.4-6.4-6.4l-256-268.8 256-268.8 6.4-6.4V57.6h76.8c19.2 0 38.4-12.8 38.4-32s-19.2-25.6-38.4-25.6H153.6c-19.2 0-38.4 12.8-38.4 32s12.8 32 38.4 32h76.8v166.4s0 6.4 6.4 6.4l256 268.8-256 268.8-6.4 6.4V966.4H153.6c-19.2 0-38.4 12.8-38.4 32s19.2 25.6 38.4 25.6h723.2c19.2 0 38.4-12.8 38.4-32-6.4-12.8-25.6-25.6-44.8-25.6zM288 57.6h448v147.2L512 441.6 288 204.8V57.6zM512 563.2l224 236.8V896h-448v-96L512 563.2zM416 768c0 25.6 19.2 44.8 44.8 44.8 25.6 0 44.8-19.2 44.8-44.8 0-25.6-19.2-44.8-44.8-44.8-19.2 0-44.8 19.2-44.8 44.8zM524.8 704c0 19.2 12.8 32 32 32s32-12.8 32-32-12.8-32-32-32-32 12.8-32 32zM505.6 851.2c0 12.8 12.8 25.6 25.6 25.6s25.6-12.8 25.6-25.6-12.8-25.6-25.6-25.6-25.6 6.4-25.6 25.6z" /></svg>