<?xml version="1.0" standalone="no"?><!DOCTYPE svg PUBLIC "-//W3C//DTD SVG 1.1//EN" "http://www.w3.org/Graphics/SVG/1.1/DTD/svg11.dtd"><svg class="icon" width="64px" height="60.29px" viewBox="0 0 1087 1024" version="1.1" xmlns="http://www.w3.org/2000/svg"><path d="M868.081873 348.924757c0 9.215171-7.679309 16.44652-16.44652 16.44652h-52.731254a16.382526 16.382526 0 0 1-16.254537-16.44652V296.321491c0-9.215171 7.679309-16.44652 16.254537-16.44652h52.731254c9.215171 0 16.44652 7.615315 16.44652 16.44652v52.603266z m0 132.468078c0 9.279165-7.679309 16.318531-16.44652 16.318531h-52.731254a16.318531 16.318531 0 0 1-16.254537-16.254537V428.789569c0-9.279165 7.679309-16.510514 16.254537-16.510514h52.731254c9.215171 0 16.44652 7.679309 16.44652 16.510514v52.603266z m0 132.980031c0 9.215171-7.679309 16.254537-16.44652 16.254538h-52.731254a16.318531 16.318531 0 0 1-16.254537-16.254538v-52.603265c0-9.279165 7.679309-16.254537 16.254537-16.254537h52.731254c9.215171 0 16.44652 7.615315 16.44652 16.254537V614.372866z m0 132.276096c0 9.279165-7.679309 16.254537-16.44652 16.254537h-52.731254a16.318531 16.318531 0 0 1-16.254537-16.254537v-52.603266c0-9.215171 7.679309-16.44652 16.254537-16.44652h52.731254c9.215171 0 16.44652 7.679309 16.44652 16.44652v52.603266z m0 132.468077c0 9.279165-7.679309 16.318531-16.44652 16.318532h-52.731254a16.318531 16.318531 0 0 1-16.254537-16.254537v-52.603266c0-9.215171 7.679309-16.44652 16.254537-16.44652h52.731254c9.215171 0 16.44652 7.615315 16.44652 16.44652v52.603266zM476.88508 216.072713c0 9.215171-7.679309 16.44652-16.510514 16.44652h-52.66726a16.574508 16.574508 0 0 1-16.446519-16.44652V163.213471c0-9.215171 7.679309-16.254537 16.446519-16.254537h52.283295c9.279165 0 16.510514 7.615315 16.510514 16.254537l0.383965 52.795248z m0 132.916038c0 9.215171-7.679309 16.44652-16.510514 16.44652h-52.66726a16.574508 16.574508 0 0 1-16.446519-16.44652V296.321491c0-9.215171 7.679309-16.44652 16.446519-16.44652h52.283295c9.279165 0 16.510514 7.615315 16.510514 16.44652l0.383965 52.603266z m0 132.468078c0 9.279165-7.679309 16.318531-16.510514 16.318531h-52.66726a16.510514 16.510514 0 0 1-16.446519-16.254537V428.789569c0-9.279165 7.679309-16.510514 16.446519-16.510514h52.283295c9.279165 0 16.510514 7.679309 16.510514 16.510514l0.383965 52.603266z m0 132.980032c0 9.215171-7.679309 16.254537-16.510514 16.254537h-52.66726a16.510514 16.510514 0 0 1-16.446519-16.254537v-52.603266c0-9.279165 7.679309-16.254537 16.446519-16.254537h52.283295c9.279165 0 16.510514 7.615315 16.510514 16.254537l0.383965 52.603266z m0 132.276095c0 9.279165-7.679309 16.254537-16.510514 16.254537h-52.66726a16.510514 16.510514 0 0 1-16.446519-16.254537v-52.603266c0-9.215171 7.679309-16.44652 16.446519-16.44652h52.283295c9.279165 0 16.510514 7.679309 16.510514 16.44652l0.383965 52.603266z m0 132.468078c0 9.279165-7.679309 16.318531-16.510514 16.318531h-52.66726a16.510514 16.510514 0 0 1-16.446519-16.254537v-52.603266c0-9.215171 7.679309-16.44652 16.446519-16.44652h52.283295c9.279165 0 16.510514 7.615315 16.510514 16.44652l0.383965 52.603266zM316.643502 348.988751c0 9.215171-7.615315 16.44652-16.254537 16.44652H247.657711a16.574508 16.574508 0 0 1-16.510514-16.44652V296.321491c0-9.215171 7.679309-16.44652 16.510514-16.44652h52.66726c9.215171 0 16.254537 7.615315 16.254537 16.44652v52.603266z m0 132.468078c0 9.279165-7.615315 16.318531-16.254537 16.318531H247.657711a16.510514 16.510514 0 0 1-16.510514-16.254537V428.789569c0-9.279165 7.679309-16.510514 16.510514-16.510514h52.66726c9.215171 0 16.254537 7.679309 16.254537 16.510514v52.603266z m0 132.980032c0 9.215171-7.615315 16.254537-16.254537 16.254537H247.657711a16.510514 16.510514 0 0 1-16.510514-16.254537v-52.603266c0-9.279165 7.679309-16.254537 16.510514-16.254537h52.66726c9.215171 0 16.254537 7.615315 16.254537 16.254537V614.372866z m0 132.276095c0 9.279165-7.615315 16.254537-16.254537 16.254537H247.657711a16.510514 16.510514 0 0 1-16.510514-16.254537v-52.603266c0-9.215171 7.679309-16.44652 16.510514-16.44652h52.66726c9.215171 0 16.254537 7.679309 16.254537 16.44652v52.603266z m0 132.468078c0 9.279165-7.615315 16.318531-16.254537 16.318531H247.657711a16.510514 16.510514 0 0 1-16.510514-16.254537v-52.603266c0-9.215171 7.679309-16.44652 16.510514-16.44652h52.66726c9.215171 0 16.254537 7.615315 16.254537 16.44652v52.603266z m683.906449 57.274845V316.607665a45.499905 45.499905 0 0 0-23.485887-40.316371L723.134918 127.760662a47.355738 47.355738 0 0 0-47.035767-0.575949 47.99568 47.99568 0 0 0-23.485886 40.316372v767.610915h-53.307203V47.127918A47.611715 47.611715 0 0 0 533.200012 3.739823L137.33164 174.540451a47.291744 47.291744 0 0 0-28.733414 43.324101v718.975292H58.938696a16.382526 16.382526 0 0 0-16.254538 16.510514v54.203122c0 9.215171 7.679309 16.44652 16.254538 16.44652h991.270785c9.279165 0 16.318531-7.679309 16.318531-16.44652v-54.203122a15.358618 15.358618 0 0 0-15.678588-16.894479h-50.299473z" /></svg>