<?xml version="1.0" standalone="no"?><!DOCTYPE svg PUBLIC "-//W3C//DTD SVG 1.1//EN" "http://www.w3.org/Graphics/SVG/1.1/DTD/svg11.dtd"><svg class="icon" width="200px" height="200.00px" viewBox="0 0 1024 1024" version="1.1" xmlns="http://www.w3.org/2000/svg"><path  d="M405.344213 85.333333c0.106667-47.146667 38.378667-85.333333 85.333334-85.333333a85.418667 85.418667 0 0 1 85.333333 85.333333h-170.666667z m170.666667 42.666667v853.312A42.56 42.56 0 0 1 533.38688 1024h-85.418667A42.645333 42.645333 0 0 1 405.344213 981.312V128h170.666667z m21.333333 42.666667h298.666667c11.776 0 26.773333 7.616 33.770667 17.429333l81.792 114.474667c6.869333 9.621333 6.997333 25.045333 0 34.858666l-81.792 114.474667c-6.869333 9.621333-22.144 17.429333-33.770667 17.429333H597.344213V170.666667z m85.333334 213.333333h190.762666l45.696-64-45.696-64H682.677547v128z m-296.789334-64v298.666667H120.77888c-11.648 0-26.922667-7.808-33.792-17.429334L5.216213 486.762667c-7.018667-9.813333-6.869333-25.237333 0-34.858667l81.770667-114.474667c7.018667-9.813333 21.994667-17.429333 33.792-17.429333h265.109333zM143.37088 405.333333l-45.717333 64 45.717333 64h157.226667v-128h-157.226667zM597.344213 533.333333h192.085334c11.733333 0 27.306667 7.253333 34.986666 16.469334l79.210667 95.061333c7.573333 9.088 7.68 23.722667 0 32.938667l-79.232 95.061333c-7.573333 9.088-23.210667 16.469333-34.965333 16.469333H597.344213V533.333333z m85.333334 170.666667h88.042666l35.541334-42.666667-35.541334-42.666666H682.677547v85.333333z" /></svg>