<?xml version="1.0" standalone="no"?><!DOCTYPE svg PUBLIC "-//W3C//DTD SVG 1.1//EN" "http://www.w3.org/Graphics/SVG/1.1/DTD/svg11.dtd"><svg t="1574740744974" class="icon" viewBox="0 0 1024 1024" version="1.1" xmlns="http://www.w3.org/2000/svg" p-id="28124" xmlns:xlink="http://www.w3.org/1999/xlink" width="200" height="200"><defs><style type="text/css"></style></defs><path d="M838.22 756.41H187.78a89.1 89.1 0 0 1-89.1-89.1V198.54a89.1 89.1 0 0 1 89.1-89.1h650.44a89.1 89.1 0 0 1 89.1 89.1v468.77a89.1 89.1 0 0 1-89.1 89.1zM852 671.35V194.5a9 9 0 0 0-9-8.95H183a9 9 0 0 0-9 8.95v476.85a9 9 0 0 0 9 8.94h660a9 9 0 0 0 9-8.94z"  p-id="28125"></path><path d="M287.01 832.52m37.86 0l376.26 0q37.86 0 37.86 37.86l0 0.39q0 37.86-37.86 37.86l-376.26 0q-37.86 0-37.86-37.86l0-0.39q0-37.86 37.86-37.86Z"  p-id="28126"></path><path d="M249.34 337.78m31.68 0l11.97 0q31.68 0 31.68 31.68l0 203.04q0 31.68-31.68 31.68l-11.97 0q-31.68 0-31.68-31.68l0-203.04q0-31.68 31.68-31.68Z"  p-id="28127"></path><path d="M400 451.95m37.67 0l-0.01 0q37.67 0 37.67 37.67l0 76.89q0 37.67-37.67 37.67l0.01 0q-37.67 0-37.67-37.67l0-76.89q0-37.67 37.67-37.67Z"  p-id="28128"></path><path d="M550.67 261.67m37.67 0l-0.01 0q37.67 0 37.67 37.67l0 267.17q0 37.67-37.67 37.67l0.01 0q-37.67 0-37.67-37.67l0-267.17q0-37.67 37.67-37.67Z"  p-id="28129"></path><path d="M701.33 413.89m37.67 0l-0.01 0q37.67 0 37.67 37.67l0 114.94q0 37.67-37.67 37.67l0.01 0q-37.67 0-37.67-37.67l0-114.94q0-37.67 37.67-37.67Z"  p-id="28130"></path></svg>