<?xml version="1.0" standalone="no"?><!DOCTYPE svg PUBLIC "-//W3C//DTD SVG 1.1//EN" "http://www.w3.org/Graphics/SVG/1.1/DTD/svg11.dtd"><svg class="icon" width="200px" height="200.00px" viewBox="0 0 1024 1024" version="1.1" xmlns="http://www.w3.org/2000/svg"><path  d="M919.240563 855.708086c-0.004093-0.005117-0.00921-0.008186-0.01535-0.013303L677.713694 614.18224l241.825674-243.663532c8.009418-8.079002 1.51654-27.726481-14.506389-43.88551-16.023952-16.156982-35.508725-22.706141-43.518143-14.628162-0.00614 0.00614-0.010233 0.010233-0.014326 0.01535L650.612453 524.68695c-1.149173 0.541329-2.185782 1.24741-3.074012 2.142803-0.00614 0.00614-0.008186 0.010233-0.014326 0.014326l-28.490891 28.65769-15.231913-15.231913c-0.005117-0.00614-0.00921-0.010233-0.016373-0.016373-0.623193-0.623193-1.318018-1.157359-2.064009-1.620917l-44.403303-44.403303c-0.00614-0.005117-0.00921-0.011256-0.01535-0.016373-5.877871-5.877871-17.398252-4.615111-29.635971 2.131547l-28.084639-28.083615c31.686676-38.724976 50.706869-88.217181 50.706869-142.156674 0-124.06155-100.57258-224.632083-224.633107-224.632083-124.05848 0-224.63106 100.56951-224.63106 224.632083 0 124.06155 100.56951 224.632083 224.63106 224.632083 53.940516 0 103.434767-19.019169 142.15872-50.706869l28.083615 28.084639c-6.746658 12.238742-8.009418 23.7581-2.131547 29.636994l61.694107 61.695131-8.16496 8.213056-1.494027 1.50733c-0.025583 0.079818-0.072655 0.146333-0.115634 0.217964 0.007163-0.00614 0.021489-0.021489 0.021489-0.021489-5.446036 8.991792 1.209548 26.935466 16.044418 41.893132 16.022928 16.156982 36.269042 23.225981 44.280506 15.152095l8.16496-8.226359 197.246363 197.247386 0.001023 0c1.112334 1.111311 2.427282 1.965771 3.90903 2.578732l40.794102 40.794102c8.711406 8.709359 29.897937 1.651616 47.318702-15.773242C920.891156 885.606023 927.949922 864.416422 919.240563 855.708086zM325.657476 494.575142c-93.044116 0-168.475086-75.426877-168.473039-168.473039-0.002047-93.046163 75.428923-168.475086 168.473039-168.475086 93.046163 0 168.474063 75.428923 168.475086 168.475086C494.132562 419.147242 418.703639 494.575142 325.657476 494.575142zM544.221354 689.36864c-16.022928-16.156982-22.515806-35.805484-14.506389-43.886533 0.001023 0 0.107447-0.107447 0.297782-0.299829-0.016373-0.014326-3.714602 3.651157-3.714602 3.651157l-79.466889 80.394005c-0.031722-0.090051-0.061398-0.182149-0.093121-0.270153-7.832386 6.955412-18.099217 11.180644-29.347398 11.180644-24.561395 0-44.471864-20.11206-44.471864-44.919049l0-0.002047 0-48.806589 0-35.622312c0-14.305821-13.777795-25.903973-30.771841-25.903973L198.54238 584.883961c-16.994046 0-30.771841 11.598152-30.771841 25.903973L167.77054 777.071098c0 0.039909 0.00307 0.077771 0.004093 0.11768-0.001023 0.096191-0.004093 0.190335-0.004093 0.283456 0 80.113619 64.291259 145.0557 143.604652 145.0557 39.9642 0 76.110445-16.494673 102.142331-43.104727 0.694825-0.433882 1.340531-0.933255 1.919722-1.51654L586.869686 704.776561C578.387501 711.608154 559.69272 704.972013 544.221354 689.36864z" /></svg>