<?xml version="1.0" standalone="no"?><!DOCTYPE svg PUBLIC "-//W3C//DTD SVG 1.1//EN" "http://www.w3.org/Graphics/SVG/1.1/DTD/svg11.dtd"><svg class="icon" width="200px" height="200.00px" viewBox="0 0 1024 1024" version="1.1" xmlns="http://www.w3.org/2000/svg"><path  d="M941.477804 86.41968l-8.352159-7.850765C880.099286 28.501911 809.876403 3.140102 740.39489 3.202393c-69.539719-0.062291-139.763623 25.299518-192.792025 75.366522L467.158058 154.465426c-32.900095 31.093643-32.900095 81.50274 0.062292 112.596383 32.90418 31.061987 86.303266 31.061987 119.264632 0l80.382515-75.895489c20.502055-19.316475 46.612383-28.662234 73.527393-28.757203 26.857825 0.094969 52.967131 9.441749 73.468165 28.757203l8.350118 7.851786c20.435679 19.34711 30.344103 43.960401 30.406395 69.227241-0.063313 25.455757-9.971737 50.130318-30.472772 69.509084L626.613948 522.290286c-20.4367 19.28584-46.73186 28.63262-74.212599 28.756183-26.232868-0.06127-52.217592-9.407029-72.717604-28.756183l-8.349096-7.850764-119.264632 112.597405 8.287826 7.882421c52.590319 49.662621 122.440474 75.398179 192.044527 75.335887h0.435019c69.227241 0 139.766687-24.98806 193.105525-75.366523l195.53489-184.537897c53.151963-50.159931 79.943412-116.553422 79.820872-182.106489 0.122541-65.612295-26.856804-131.849546-79.820872-181.824646z m-382.908581 670.100739c-32.900095-31.091601-86.299182-31.091601-119.265653-0.030635l-84.243564 79.541071c-20.502055 19.28584-46.735944 28.633642-74.273869 28.725547-26.23491-0.091905-52.218613-9.377416-72.719647-28.725547l-8.349096-7.850765c-20.438742-19.378767-30.347167-44.054349-30.407416-69.633667 0.06127-25.173913 9.969695-49.724913 30.407416-69.103679l195.596162-184.566491c20.502055-19.318518 46.608298-28.665298 73.465101-28.725547 26.856804 0.06127 52.967131 9.407029 73.465102 28.725547l8.350117 7.850765v0.030635L669.858508 400.159227v-0.030635l-8.285784-7.850765-15.139885-14.269847a84.508047 84.508047 0 0 0-21.437447-14.704866c-46.796193-30.876134-101.754609-46.454101-156.215714-46.39283-69.477428-0.091905-139.762602 25.299518-192.792025 75.397157L80.451741 576.875974C27.487674 626.757126 0.506287 692.9617 0.5696 758.546423c-0.063313 65.552046 26.667887 132.039484 79.882141 182.199416l8.351139 7.850764c52.527006 49.725934 122.379204 75.46047 191.983257 75.398179h0.435019c69.227241 0 139.762602-24.98806 193.103482-75.398179l84.243564-79.508393c32.966471-31.094664 32.966471-81.504783 0.001021-112.567791z" /></svg>