<?xml version="1.0" standalone="no"?><!DOCTYPE svg PUBLIC "-//W3C//DTD SVG 1.1//EN" "http://www.w3.org/Graphics/SVG/1.1/DTD/svg11.dtd"><svg class="icon" width="200px" height="200.00px" viewBox="0 0 1024 1024" version="1.1" xmlns="http://www.w3.org/2000/svg"><path  d="M512 409.6a102.4 102.4 0 0 0-51.2 190.464V1024h102.4v-423.936A102.4 102.4 0 0 0 512 409.6zM512 0a512 512 0 0 0-263.168 950.272l51.2-87.552a409.6 409.6 0 1 1 420.864 0l51.2 87.552A512 512 0 0 0 512 0zM819.2 512a307.2 307.2 0 1 0-464.896 263.168l51.2-88.064a204.8 204.8 0 1 1 209.92 0l51.2 88.064A307.2 307.2 0 0 0 819.2 512z" /></svg>