<?xml version="1.0" standalone="no"?><!DOCTYPE svg PUBLIC "-//W3C//DTD SVG 1.1//EN" "http://www.w3.org/Graphics/SVG/1.1/DTD/svg11.dtd"><svg class="icon" width="200px" height="200.00px" viewBox="0 0 1024 1024" version="1.1" xmlns="http://www.w3.org/2000/svg"><path  d="M892.17536 458.10688c3.13856-51.10784 7.07072-102.99904 0.77824-154.10688-3.14368-28.30848-36.16256-25.15968-56.61184-29.09184-3.13856-9.43616-6.29248-18.08384-9.43616-27.52-33.81248-4.71552-66.83648-6.29248-100.63872-6.29248-35.38432 0-70.76352 1.57696-106.14272 1.57696-12.57984 0-25.94816 0-38.52288-0.78848V171.90912h-51.89632c-133.66784 23.58784-400.99328 69.97504-400.99328 69.97504v609.35168s265.75872 45.59872 398.63296 69.98016h54.25664v-69.98016h99.06688c30.6688 0 61.33248 0.78336 91.99616 0.78336 17.30048-0.78336 36.95616 1.57696 52.67968-7.86432 7.86432-12.57472 7.07584-28.29824 10.21952-42.44992 20.43904-3.93728 52.67968-2.36032 56.61696-29.09696 4.71552-49.536 4.71552-101.43232-1.57696-150.9632 9.43104-54.2464 6.28736-109.2864 1.57184-163.53792z m-415.15008 266.54208c-23.58784-1.57696-47.17568-2.36544-70.76352-3.93216-44.032-84.13184-90.4192-165.90336-132.87936-250.0352 1.57184 80.98816 0.78336 161.9712 0.78336 242.95424-19.65568-1.57696-40.09472-2.3552-59.7504-3.93216 0.78336-110.85824 0.78336-222.51008 0-333.37344 22.79936-1.57696 45.60384-2.36032 67.61472-3.93216 42.46016 77.83936 85.70368 155.68384 127.37536 235.09504 0.78848-80.98304 0-161.9712 0.78848-242.95424 22.016-0.78848 44.032-1.57184 66.83136-1.57184v361.68192z m331.01312-281.48224v383.69792h-226.44224v-69.98016h165.89824v-34.60096h-165.89824v-44.02688h165.89824v-34.60096h-165.89824v-44.032h165.89824v-34.59584h-165.89824v-44.032h165.11488V486.4h-165.90336v-44.032h165.90336v-34.59584h-165.90336v-44.032h165.90336v-34.59072h-165.90336V267.8272h226.44224v34.60096c20.44928 0 40.88832 0.78336 60.544 1.57184 1.57696 46.3872 1.57696 91.99104 0 138.38336-19.65568-0.00512-40.09472 0.78336-59.75552 0.78336z m59.75552 328.65792c-11.00288 0.78336-22.79424 1.57184-33.81248 2.36032v-140.74368c11.01312 0.78848 22.80448 1.57696 33.81248 1.57696 1.57696 45.59872 1.57696 91.19744 0 136.8064z m0-164.33152c-11.79648 0.78336-22.79424 0.78336-33.81248 1.57696V468.3264c11.01312 0.78848 22.80448 0.78848 33.81248 1.57696 1.57696 46.3872 2.3552 91.99104 0 137.58976z" /></svg>