<?xml version="1.0" standalone="no"?><!DOCTYPE svg PUBLIC "-//W3C//DTD SVG 1.1//EN" "http://www.w3.org/Graphics/SVG/1.1/DTD/svg11.dtd"><svg class="icon" width="200px" height="200.00px" viewBox="0 0 1024 1024" version="1.1" xmlns="http://www.w3.org/2000/svg"><path  d="M384 658.285714c-10.971429 0-18.285714 7.314286-18.285714 18.285715s7.314286 18.285714 18.285714 18.285714h256c10.971429 0 18.285714-7.314286 18.285714-18.285714s-7.314286-18.285714-18.285714-18.285715h-256z m0-109.714285c-10.971429 0-18.285714 7.314286-18.285714 18.285714s7.314286 18.285714 18.285714 18.285714h256c10.971429 0 18.285714-7.314286 18.285714-18.285714s-7.314286-18.285714-18.285714-18.285714h-256z m0-109.714286c-10.971429 0-18.285714 7.314286-18.285714 18.285714s7.314286 18.285714 18.285714 18.285714h256c10.971429 0 18.285714-7.314286 18.285714-18.285714s-7.314286-18.285714-18.285714-18.285714h-256z m-73.142857 256c10.971429 0 18.285714-7.314286 18.285714-18.285714s-7.314286-18.285714-18.285714-18.285715-18.285714 7.314286-18.285714 18.285715 7.314286 18.285714 18.285714 18.285714z m0-109.714286c10.971429 0 18.285714-7.314286 18.285714-18.285714s-7.314286-18.285714-18.285714-18.285714-18.285714 7.314286-18.285714 18.285714 7.314286 18.285714 18.285714 18.285714z m0-109.714286c10.971429 0 18.285714-7.314286 18.285714-18.285714s-7.314286-18.285714-18.285714-18.285714-18.285714 7.314286-18.285714 18.285714 7.314286 18.285714 18.285714 18.285714zM804.571429 431.542857c98.742857 7.314286 182.857143 98.742857 182.857142 204.8 0 113.371429-87.771429 204.8-197.485714 204.8H274.285714C142.628571 841.142857 36.571429 731.428571 36.571429 592.457143c0-128 91.428571-230.4 212.114285-248.685714C299.885714 248.685714 398.628571 182.857143 512 182.857143c146.285714 0 266.971429 106.057143 292.571429 248.685714z"  /></svg>