<?xml version="1.0" standalone="no"?><!DOCTYPE svg PUBLIC "-//W3C//DTD SVG 1.1//EN" "http://www.w3.org/Graphics/SVG/1.1/DTD/svg11.dtd"><svg class="icon" width="200px" height="200.00px" viewBox="0 0 1024 1024" version="1.1" xmlns="http://www.w3.org/2000/svg"><path  d="M889.142856875 786.2857146875h-754.28571375c-20.5714284375 0-34.285714687500004-13.714285312500001-34.285714687500004-34.285714687500004v-548.5714284375C100.5714284375 107.4285715625 176 32 272 32h617.142856875c20.5714284375 0 34.285714687500004 13.714285312500001 34.285714687500004 34.285714687500004v685.7142853125c0 20.5714284375-13.714285312500001 34.285714687500004-34.285714687500004 34.285714687500004zM169.142856875 717.7142853125h685.71428625V100.5714284375H272C217.142856875 100.5714284375 169.142856875 148.5714284375 169.142856875 203.4285715625V717.7142853125z"  /><path  d="M779.4285715625001 745.142856875h68.5714284375v185.1428578125h-68.5714284375z"  /><path  d="M889.142856875 992h-754.28571375c-20.5714284375 0-34.285714687500004-13.714285312500001-34.285714687500004-34.285714687500004v-205.7142853125c0-20.5714284375 13.714285312500001-34.285714687500004 34.285714687500004-34.285714687500004h754.28571375c20.5714284375 0 34.285714687500004 13.714285312500001 34.285714687500004 34.285714687500004s-13.714285312500001 34.285714687500004-34.285714687500004 34.285714687500004H169.142856875v137.142856875h720c20.5714284375 0 34.285714687500004 13.714285312500001 34.285714687500004 34.28571375s-13.714285312500001 34.285714687500004-34.285714687500004 34.285714687500004zM340.5714284375 512s-6.857143125 0-13.714285312500001-6.857143125c-13.714285312500001 0-20.5714284375-13.714285312500001-20.5714284375-27.4285715625v-411.428570625c0-20.5714284375 20.5714284375-34.285714687500004 34.28571375-34.285714687500004h205.71428625000001c20.5714284375 0 34.285714687500004 13.714285312500001 34.28571375 34.285714687500004v411.428570625c0 13.714285312500001-6.857143125 20.5714284375-20.5714284375 27.4285715625-6.857143125 6.857143125-20.5714284375 6.857143125-27.4285715625 0L443.4285715625 457.142856875l-82.2857146875 48c-6.857143125 6.857143125-13.714285312500001 6.857143125-20.5714284375 6.857143125zM443.4285715625 381.7142853125c6.857143125 0 13.714285312500001 0 20.5714284375 6.857143125l48 27.4285715625V100.5714284375H374.857143125v315.4285715625l48-27.4285715625c6.857143125-6.857143125 13.714285312500001-6.857143125 20.5714284375-6.857143125z"  /></svg>